<?xml version="1.0" standalone="no"?>
<!DOCTYPE svg PUBLIC "-//W3C//DTD SVG 20010904//EN"
 "http://www.w3.org/TR/2001/REC-SVG-20010904/DTD/svg10.dtd">
<svg version="1.0" xmlns="http://www.w3.org/2000/svg"
 width="2086.000000pt" height="540.000000pt" viewBox="0 0 2086.000000 540.000000"
 preserveAspectRatio="xMidYMid meet">

<g transform="translate(0.000000,540.000000) scale(0.100000,-0.100000)"
fill="#000000" stroke="none">
<path d="M5218 3598 c-1 -29 -2 -73 -3 -98 -3 -58 4 -100 16 -100 5 0 9 56 9
125 0 77 -4 125 -10 125 -5 0 -11 -24 -12 -52z"/>
<path d="M13739 3598 c-1 -29 -2 -75 -3 -103 -2 -61 3 -95 15 -95 5 0 9 56 9
125 0 77 -4 125 -10 125 -5 0 -11 -24 -11 -52z"/>
<path d="M4806 3618 c-10 -38 -7 -108 5 -108 6 0 19 5 31 11 43 23 97 -17 83
-62 -4 -11 -18 -27 -31 -36 -24 -15 -27 -15 -55 6 -38 28 -61 23 -31 -7 40
-40 137 -21 143 28 5 50 -2 70 -32 86 -19 10 -43 14 -60 10 -28 -5 -29 -4 -29
34 l0 40 55 0 c30 0 55 5 55 10 0 6 -28 10 -64 10 -58 0 -64 -2 -70 -22z"/>
<path d="M13326 3603 c-8 -50 -8 -93 1 -93 4 0 21 5 39 12 27 9 37 9 58 -6 42
-27 30 -85 -20 -100 -13 -4 -30 1 -48 15 -35 27 -57 20 -28 -9 33 -33 104 -31
131 4 26 33 27 65 2 95 -15 19 -29 24 -65 24 l-46 0 0 38 0 37 55 0 c30 0 55
5 55 10 0 6 -28 10 -64 10 l-63 0 -7 -37z"/>
<path d="M5106 3558 c-9 -13 -16 -43 -16 -71 0 -38 5 -53 25 -72 29 -30 46
-31 76 -4 l24 20 -24 -11 c-17 -9 -30 -9 -47 -1 -21 9 -24 17 -24 65 0 75 25
100 73 74 20 -10 21 -10 8 5 -20 25 -76 22 -95 -5z"/>
<path d="M5310 3565 c-19 -23 -7 -27 28 -9 36 18 72 6 72 -25 0 -14 -10 -20
-46 -25 -57 -7 -74 -20 -74 -55 0 -35 10 -48 41 -56 17 -4 33 0 51 14 22 18
27 18 32 6 3 -8 15 -15 28 -15 17 0 19 3 10 12 -7 7 -12 37 -12 68 0 76 -18
100 -74 100 -27 0 -48 -6 -56 -15z m100 -91 c0 -47 -62 -82 -87 -48 -17 23
-16 29 3 48 21 21 84 22 84 0z"/>
<path d="M5506 3495 c42 -104 42 -121 4 -143 -32 -18 -39 -32 -16 -32 27 0 64
44 84 100 11 30 29 79 41 108 16 41 18 52 7 52 -9 0 -23 -27 -36 -67 -13 -38
-25 -71 -29 -75 -4 -4 -19 26 -34 67 -16 43 -34 75 -42 75 -10 0 -4 -23 21
-85z"/>
<path d="M5676 3558 c-21 -30 -2 -59 50 -74 46 -13 63 -36 45 -58 -17 -20 -50
-20 -79 0 -27 18 -41 12 -23 -10 30 -36 123 -26 136 15 10 31 -13 57 -62 71
-53 15 -67 40 -33 58 16 9 28 8 52 -4 35 -18 47 -14 28 9 -20 24 -95 20 -114
-7z"/>
<path d="M13630 3565 c-7 -9 -15 -38 -18 -65 -5 -54 12 -94 46 -104 23 -8 72
9 72 24 0 7 -6 8 -19 0 -27 -14 -37 -13 -55 6 -17 16 -22 99 -8 120 12 18 42
24 63 14 11 -6 19 -7 19 -1 0 24 -81 29 -100 6z"/>
<path d="M13832 3568 c-16 -16 -15 -28 3 -28 8 0 15 4 15 9 0 14 42 21 62 10
10 -5 18 -18 18 -28 0 -14 -10 -20 -49 -25 -27 -3 -54 -13 -61 -21 -19 -23 -8
-68 22 -84 25 -14 29 -14 57 6 24 18 30 20 35 8 3 -8 18 -15 33 -15 24 1 25 2
11 11 -14 8 -18 24 -18 73 0 48 -4 67 -18 79 -22 20 -92 23 -110 5z m98 -98
c0 -20 -32 -60 -49 -60 -24 0 -41 14 -41 34 0 31 19 46 57 46 26 0 33 -4 33
-20z"/>
<path d="M14000 3571 c0 -6 16 -50 35 -97 l34 -86 -24 -24 c-13 -13 -29 -24
-35 -24 -5 0 -10 -4 -10 -10 0 -5 6 -10 14 -10 31 0 66 48 101 140 20 52 39
101 42 108 3 6 -1 12 -9 12 -7 0 -22 -24 -32 -52 -40 -114 -35 -111 -66 -28
-24 65 -50 102 -50 71z"/>
<path d="M14202 3568 c-16 -16 -15 -53 1 -66 6 -6 27 -14 46 -19 43 -11 60
-35 42 -57 -17 -20 -51 -21 -77 -1 -22 17 -34 19 -34 5 0 -5 14 -17 31 -26 43
-22 96 -11 111 22 16 34 2 55 -47 72 -68 23 -82 45 -40 64 19 9 29 7 50 -6 30
-20 44 -14 25 9 -15 18 -91 20 -108 3z"/>
<path d="M3880 3085 l0 -215 25 0 25 0 0 114 c0 99 3 117 21 140 16 20 29 26
59 26 61 0 70 -21 70 -162 0 -116 0 -118 23 -118 21 0 22 4 25 104 4 134 -8
182 -52 203 -45 21 -99 11 -126 -24 l-20 -26 0 87 c0 85 0 86 -25 86 l-25 0 0
-215z"/>
<path d="M7770 3085 l0 -215 25 0 c25 0 25 0 25 99 0 144 18 181 89 181 54 0
61 -18 61 -156 l0 -124 25 0 25 0 0 123 c0 103 -3 127 -20 154 -33 55 -127 54
-165 -1 -14 -19 -15 -13 -15 67 0 86 0 87 -25 87 l-25 0 0 -215z"/>
<path d="M12050 3085 c0 -208 1 -215 20 -215 19 0 20 7 20 93 0 150 18 187 92
187 54 0 58 -11 58 -152 l0 -128 26 0 26 0 -4 136 c-3 135 -3 136 -31 160 -44
38 -109 30 -149 -20 -17 -20 -18 -18 -18 67 0 80 -2 87 -20 87 -19 0 -20 -7
-20 -215z"/>
<path d="M1634 3261 c-78 -35 -116 -125 -96 -226 16 -77 44 -119 96 -144 73
-36 204 -23 257 25 15 14 19 31 19 86 l0 68 -80 0 c-73 0 -80 -2 -80 -20 0
-18 7 -20 60 -20 l60 0 0 -40 c0 -38 -3 -42 -42 -60 -54 -24 -122 -25 -168 -2
-51 25 -74 73 -74 151 0 110 46 161 146 161 53 0 118 -27 118 -50 0 -12 20
-13 39 -1 22 14 -5 50 -52 72 -55 25 -148 25 -203 0z"/>
<path d="M5270 3005 l0 -275 -2280 0 -2280 0 0 -25 0 -25 2280 0 2280 0 0
-300 0 -300 25 0 25 0 0 300 0 300 2113 -2 2112 -3 0 -253 0 -252 23 0 22 0 0
255 0 255 2113 -2 2112 -3 0 -278 0 -277 28 0 27 0 0 280 0 280 2675 0 2675 0
0 -69 0 -68 233 75 c127 41 235 78 239 81 4 3 -100 40 -230 82 l-237 77 -3
-64 -3 -64 -2674 0 -2675 0 0 255 0 255 -25 0 -25 0 0 -255 0 -255 -2115 0
-2115 0 0 255 c0 248 -1 255 -20 255 -19 0 -20 -8 -22 -252 l-3 -253 -2112 -3
-2113 -2 0 275 0 275 -25 0 -25 0 0 -275z"/>
<path d="M6200 3075 l0 -205 130 0 c123 0 130 1 130 20 0 19 -7 20 -105 20
l-105 0 0 185 0 185 -25 0 -25 0 0 -205z"/>
<path d="M10470 3075 l0 -205 130 0 c123 0 130 1 130 20 0 22 -12 23 -147 20
l-63 -1 0 185 0 186 -25 0 -25 0 0 -205z"/>
<path d="M2874 3215 c-4 -25 -11 -35 -25 -35 -11 0 -19 -7 -19 -15 0 -8 6 -15
14 -15 12 0 15 -25 18 -126 3 -140 10 -154 75 -154 26 0 33 4 33 20 0 14 -7
20 -24 20 -32 0 -36 14 -36 136 l0 104 30 0 c20 0 30 5 30 15 0 10 -10 15 -30
15 -28 0 -30 3 -30 35 0 24 -5 35 -15 35 -8 0 -17 -14 -21 -35z"/>
<path d="M3730 3231 c0 -33 -11 -51 -31 -51 -10 0 -19 -7 -19 -15 0 -8 9 -15
20 -15 19 0 20 -7 20 -123 0 -141 8 -157 73 -157 30 0 37 4 37 19 0 14 -8 21
-27 23 l-28 3 -3 118 -3 117 26 0 c16 0 25 6 25 15 0 9 -9 15 -25 15 -22 0
-25 4 -25 35 0 28 -4 35 -20 35 -13 0 -20 -7 -20 -19z"/>
<path d="M7626 3234 c-3 -9 -6 -24 -6 -35 0 -12 -7 -19 -20 -19 -11 0 -20 -7
-20 -15 0 -8 6 -15 14 -15 12 0 15 -25 18 -126 3 -140 10 -154 75 -154 26 0
33 4 33 19 0 14 -8 21 -27 23 l-28 3 -3 118 -3 117 31 0 c20 0 30 5 30 15 0
10 -10 15 -30 15 -28 0 -30 3 -30 35 0 37 -22 49 -34 19z"/>
<path d="M11894 3215 c-4 -25 -11 -35 -25 -35 -11 0 -19 -7 -19 -15 0 -8 7
-15 15 -15 12 0 15 -18 15 -104 0 -103 10 -153 33 -168 7 -4 27 -8 45 -8 25 0
32 4 32 20 0 14 -7 20 -24 20 -32 0 -36 14 -36 136 l0 104 30 0 c20 0 30 5 30
15 0 10 -10 15 -30 15 -28 0 -30 3 -30 35 0 24 -5 35 -15 35 -8 0 -17 -14 -21
-35z"/>
<path d="M16690 3040 l0 -210 24 0 c24 0 24 1 28 116 3 113 4 116 31 140 32
28 63 31 95 8 21 -14 22 -22 22 -140 l0 -124 25 0 25 0 0 114 c0 167 -15 196
-101 196 -33 0 -49 -6 -71 -27 l-28 -27 0 82 c0 81 0 82 -25 82 l-25 0 0 -210z"/>
<path d="M14478 3231 c-46 -15 -87 -51 -109 -93 -17 -33 -20 -55 -17 -112 4
-92 30 -143 89 -176 75 -41 210 -28 271 27 14 12 18 32 18 85 l0 68 -85 0
c-78 0 -85 -2 -85 -20 0 -18 7 -20 60 -20 l60 0 0 -44 c0 -41 -3 -45 -37 -61
-85 -41 -190 -15 -225 55 -24 47 -24 144 0 189 44 81 171 96 235 27 17 -18 27
-22 45 -15 22 8 22 10 7 33 -33 49 -155 80 -227 57z"/>
<path d="M15690 3191 c0 -33 -11 -51 -31 -51 -10 0 -19 -7 -19 -15 0 -8 9 -15
20 -15 19 0 20 -7 20 -123 0 -151 9 -166 93 -159 28 3 19 29 -13 36 l-30 6 0
120 0 120 25 0 c16 0 25 6 25 15 0 9 -9 15 -25 15 -22 0 -25 4 -25 35 0 28 -4
35 -20 35 -13 0 -20 -7 -20 -19z"/>
<path d="M16544 3175 c-5 -26 -11 -35 -26 -35 -13 0 -18 -5 -16 -17 2 -10 10
-17 16 -15 9 1 12 -29 12 -114 0 -63 5 -124 11 -135 13 -24 50 -40 78 -32 26
7 28 33 3 33 -36 0 -42 20 -42 137 l0 113 30 0 c20 0 30 5 30 15 0 10 -10 15
-30 15 -28 0 -30 3 -30 35 0 24 -5 35 -15 35 -8 0 -17 -14 -21 -35z"/>
<path d="M2092 3174 c-13 -9 -27 -26 -32 -38 -8 -18 -9 -17 -9 12 -1 27 -5 32
-26 32 l-25 0 0 -139 c0 -152 3 -171 30 -171 16 0 18 13 21 115 4 101 7 117
25 136 12 11 33 22 48 22 20 2 26 7 26 25 0 27 -25 29 -58 6z"/>
<path d="M2265 3180 c-74 -30 -105 -176 -55 -256 43 -69 193 -72 229 -5 15 27
-22 35 -44 10 -23 -24 -70 -33 -104 -19 -31 12 -51 47 -51 85 l0 25 111 0 112
0 -7 41 c-10 61 -33 99 -71 115 -38 15 -89 17 -120 4z m120 -55 c14 -13 25
-33 25 -45 0 -19 -6 -20 -85 -20 -76 0 -85 2 -85 19 0 10 9 30 21 45 28 36 89
37 124 1z"/>
<path d="M2583 3175 c-17 -7 -37 -23 -43 -35 -13 -24 -13 -25 15 -34 15 -4 23
0 30 17 8 17 20 23 54 25 52 4 81 -17 81 -60 0 -27 -2 -28 -47 -28 -108 0
-158 -33 -157 -103 3 -92 124 -121 186 -43 10 11 18 15 18 9 0 -22 39 -53 65
-53 30 0 33 20 5 38 -18 11 -20 23 -20 101 0 48 -5 103 -11 121 -19 54 -105
76 -176 45z m137 -174 c0 -60 -82 -117 -130 -91 -26 14 -34 57 -16 85 16 24
39 31 109 34 35 1 37 -1 37 -28z"/>
<path d="M3080 3172 c-45 -22 -70 -72 -70 -140 0 -60 17 -108 50 -137 17 -16
36 -20 90 -20 59 0 72 3 94 24 14 14 26 28 26 32 0 15 -35 20 -45 6 -30 -41
-105 -46 -139 -8 -9 10 -20 35 -23 55 l-6 36 112 0 111 0 0 33 c0 73 -62 137
-135 137 -16 0 -46 -8 -65 -18z m127 -44 c13 -12 23 -32 23 -45 0 -22 -3 -23
-86 -23 l-86 0 6 28 c15 60 96 84 143 40z"/>
<path d="M3442 3174 c-13 -9 -27 -26 -32 -38 -8 -18 -9 -17 -9 12 -1 27 -5 32
-26 32 l-25 0 0 -155 0 -155 24 0 c24 0 24 1 27 115 4 101 7 117 25 136 12 11
33 22 48 22 20 2 26 7 26 25 0 27 -25 29 -58 6z"/>
<path d="M4263 3175 c-17 -7 -37 -23 -43 -35 -13 -24 -13 -25 15 -34 15 -4 23
0 30 17 8 17 20 23 57 25 39 3 49 -1 62 -20 9 -12 16 -33 16 -45 0 -21 -4 -23
-57 -23 -101 0 -163 -51 -148 -120 16 -72 108 -93 170 -39 25 22 35 27 35 16
0 -21 38 -47 67 -47 29 0 31 26 3 35 -18 6 -20 15 -20 99 0 51 -5 108 -11 126
-19 54 -105 76 -176 45z m137 -174 c0 -61 -80 -118 -129 -91 -29 15 -37 55
-17 84 17 26 36 32 104 35 40 1 42 0 42 -28z"/>
<path d="M4650 3183 c-8 -3 -27 -17 -42 -31 l-28 -26 0 27 c0 20 -5 27 -20 27
-19 0 -20 -7 -20 -155 l0 -155 25 0 25 0 -1 112 c0 95 2 115 19 137 15 21 27
26 63 26 60 0 69 -20 69 -162 0 -104 2 -113 19 -113 16 0 19 11 25 89 13 162
-13 232 -86 230 -18 0 -40 -3 -48 -6z"/>
<path d="M6573 3170 c-45 -27 -63 -68 -63 -140 0 -77 21 -123 65 -144 64 -31
160 -13 185 33 15 30 -19 32 -53 4 -16 -13 -42 -23 -59 -23 -41 0 -88 48 -88
89 l0 31 111 0 112 0 -6 45 c-4 25 -14 57 -24 71 -34 53 -123 69 -180 34z
m132 -45 c14 -13 25 -33 25 -45 0 -19 -6 -20 -85 -20 -76 0 -85 2 -85 19 0 10
9 30 21 45 28 36 89 37 124 1z"/>
<path d="M6900 3179 c-95 -39 -75 -134 32 -159 75 -17 100 -35 96 -68 -6 -54
-105 -69 -146 -21 -19 22 -52 26 -52 6 0 -8 11 -24 25 -37 21 -20 39 -25 95
-28 66 -4 71 -3 100 26 61 62 29 131 -72 151 -33 7 -64 21 -77 34 -19 21 -19
25 -5 45 21 30 95 31 124 2 24 -24 53 -26 48 -4 -8 44 -112 77 -168 53z"/>
<path d="M7203 3182 c-39 -12 -63 -40 -63 -73 0 -51 16 -67 90 -89 74 -22 100
-40 100 -70 0 -25 -37 -50 -73 -50 -32 0 -87 26 -87 40 0 6 -9 10 -20 10 -41
0 -13 -52 37 -71 13 -5 45 -9 71 -9 86 0 138 56 112 120 -13 31 -32 43 -112
65 -35 9 -62 23 -68 35 -13 24 -13 26 6 44 23 24 93 21 120 -5 23 -22 59 -20
52 3 -13 37 -111 67 -165 50z"/>
<path d="M8155 3176 c-17 -7 -36 -25 -42 -39 -11 -23 -9 -25 13 -30 13 -2 24
-1 24 4 0 20 35 39 70 39 46 0 70 -21 70 -61 0 -28 -2 -29 -47 -29 -106 0
-153 -32 -153 -103 0 -56 35 -87 96 -87 41 0 51 5 80 36 34 35 34 35 34 10 0
-28 25 -46 64 -46 32 0 34 22 4 35 -21 9 -23 18 -28 120 -3 61 -9 116 -14 124
-23 36 -116 51 -171 27z m135 -179 c0 -43 -22 -73 -65 -87 -44 -15 -73 -5 -81
26 -16 61 18 92 104 93 41 1 42 0 42 -32z"/>
<path d="M8534 3180 c-12 -5 -29 -19 -38 -32 l-16 -22 0 27 c0 22 -4 27 -25
27 l-25 0 0 -155 0 -155 25 0 c25 0 25 0 25 99 0 144 18 181 89 181 54 0 61
-18 61 -156 l0 -124 26 0 26 0 -4 136 c-3 135 -3 136 -31 160 -29 25 -73 30
-113 14z"/>
<path d="M10850 3172 c-47 -23 -70 -72 -70 -148 0 -68 25 -118 70 -141 56 -28
156 -8 180 36 16 31 -17 35 -52 6 -17 -14 -42 -25 -60 -25 -41 0 -88 48 -88
89 l0 31 110 0 110 0 0 33 c0 73 -62 137 -135 137 -16 0 -46 -8 -65 -18z m124
-43 c15 -12 26 -30 26 -45 0 -24 -2 -24 -85 -24 -79 0 -85 1 -85 20 0 12 11
32 25 45 30 31 82 33 119 4z"/>
<path d="M11163 3175 c-87 -38 -64 -131 39 -155 66 -16 85 -25 98 -50 9 -17 6
-25 -15 -46 -23 -22 -33 -26 -67 -21 -22 3 -51 15 -63 27 -25 23 -60 21 -53
-3 10 -30 71 -57 129 -57 74 0 119 32 119 86 0 48 -34 79 -100 93 -78 17 -112
55 -78 89 20 20 95 15 118 -8 21 -21 50 -27 50 -9 0 25 -23 49 -58 59 -49 13
-80 12 -119 -5z"/>
<path d="M11470 3179 c-41 -17 -60 -40 -60 -74 0 -43 29 -71 92 -85 75 -17
100 -35 96 -68 -6 -55 -102 -68 -149 -21 -22 22 -49 25 -49 4 0 -66 176 -90
227 -30 44 50 19 118 -50 135 -84 22 -107 32 -117 50 -13 24 -13 26 6 44 24
24 99 21 123 -5 20 -22 56 -20 49 3 -13 39 -117 69 -168 47z"/>
<path d="M12425 3174 c-16 -8 -33 -21 -37 -27 -24 -38 17 -55 45 -20 14 18 29
23 62 23 48 0 62 -12 67 -55 3 -28 0 -30 -32 -33 -134 -9 -170 -31 -170 -102
0 -59 33 -90 96 -90 39 0 51 5 80 34 33 33 34 33 34 10 0 -26 26 -44 64 -44
16 0 26 6 26 15 0 8 -7 15 -15 15 -25 0 -35 36 -35 130 0 50 -5 100 -10 111
-25 46 -117 63 -175 33z m137 -179 c-5 -46 -28 -73 -72 -86 -35 -11 -42 -10
-60 6 -20 18 -26 60 -12 82 13 20 54 32 102 30 44 -2 45 -3 42 -32z"/>
<path d="M12794 3171 c-18 -11 -34 -25 -37 -33 -3 -7 -6 -1 -6 15 -1 22 -6 27
-26 27 l-25 0 0 -155 0 -155 25 0 c25 0 25 0 25 99 0 144 18 181 89 181 54 0
61 -18 61 -156 l0 -124 26 0 26 0 -4 136 c-3 135 -3 136 -31 160 -34 29 -80
31 -123 5z"/>
<path d="M14820 2985 l0 -155 25 0 25 0 0 109 c0 94 3 112 21 135 12 15 30 26
45 26 17 0 24 5 24 20 0 15 -7 20 -25 20 -24 0 -32 -6 -60 -45 -14 -19 -14
-18 -15 13 0 25 -4 32 -20 32 -19 0 -20 -7 -20 -155z"/>
<path d="M15059 3125 c-54 -29 -77 -159 -42 -232 17 -37 76 -72 120 -73 51 0
123 43 123 74 0 13 -34 5 -57 -14 -25 -20 -76 -26 -108 -14 -19 8 -45 55 -45
84 0 19 6 20 110 20 l110 0 0 35 c0 52 -24 102 -59 119 -37 20 -117 20 -152 1z
m144 -46 c9 -12 17 -32 17 -45 0 -23 -2 -24 -85 -24 -79 0 -85 1 -85 21 0 11
14 34 30 51 27 26 36 30 68 25 20 -4 45 -16 55 -28z"/>
<path d="M15378 3120 c-14 -11 -28 -29 -31 -40 -8 -29 30 -26 59 5 44 48 124
24 124 -37 0 -24 -4 -26 -76 -36 -93 -13 -124 -36 -124 -93 0 -58 36 -94 94
-94 38 0 51 5 80 34 31 30 36 32 36 15 0 -29 19 -44 57 -44 23 0 33 5 33 15 0
8 -9 15 -19 15 -26 0 -31 18 -31 120 0 135 -20 160 -124 160 -38 0 -61 -6 -78
-20z m152 -171 c0 -43 -47 -89 -92 -89 -43 0 -58 15 -58 56 0 44 30 64 97 64
52 0 53 0 53 -31z"/>
<path d="M15872 3115 c-58 -49 -67 -184 -16 -245 45 -53 143 -62 199 -18 14
11 25 26 25 34 0 21 -34 17 -55 -6 -27 -29 -89 -27 -120 5 -14 13 -25 31 -25
39 0 8 -3 21 -6 30 -5 14 8 16 110 16 67 0 116 4 116 10 0 5 -5 32 -11 59 -15
73 -52 101 -129 101 -48 0 -64 -5 -88 -25z m156 -40 c12 -14 22 -35 22 -46 0
-17 -8 -19 -90 -19 -49 0 -90 2 -90 5 0 19 31 75 47 84 28 18 85 5 111 -24z"/>
<path d="M16170 2985 l0 -155 25 0 25 0 -1 104 c-1 129 14 165 69 166 15 0 22
6 22 20 0 15 -7 20 -25 20 -24 0 -32 -6 -60 -45 -14 -19 -14 -18 -15 13 0 25
-4 32 -20 32 -19 0 -20 -7 -20 -155z"/>
<path d="M17058 3120 c-14 -11 -28 -29 -31 -40 -8 -29 30 -26 59 5 42 46 124
23 124 -34 0 -28 -2 -29 -67 -36 -104 -11 -132 -32 -133 -101 0 -56 35 -89 95
-89 36 0 50 6 79 34 31 30 36 32 36 15 0 -29 19 -44 57 -44 23 0 33 5 33 15 0
8 -9 15 -19 15 -26 0 -31 18 -31 120 0 135 -20 160 -124 160 -38 0 -61 -6 -78
-20z m152 -171 c0 -43 -47 -89 -92 -89 -43 0 -58 15 -58 56 0 44 30 64 97 64
52 0 53 0 53 -31z"/>
<path d="M17350 2985 l0 -155 24 0 c24 0 24 1 28 116 3 113 4 116 31 140 34
29 70 31 97 4 18 -18 20 -33 20 -140 l0 -120 25 0 25 0 0 114 c0 167 -15 196
-103 196 -35 0 -50 -6 -71 -26 l-26 -27 0 27 c0 21 -5 26 -25 26 l-25 0 0
-155z"/>
<path d="M9180 1685 l0 -215 25 0 25 0 0 215 0 215 -25 0 -25 0 0 -215z"/>
<path d="M10630 1818 l0 -81 -25 23 c-32 30 -104 33 -136 4 -62 -55 -67 -208
-7 -271 31 -33 109 -33 143 1 25 25 35 24 35 -6 0 -11 7 -18 20 -18 19 0 20 7
20 215 l0 215 -25 0 c-25 0 -25 -1 -25 -82z m-24 -89 c25 -28 28 -179 3 -204
-26 -26 -81 -30 -109 -7 -23 19 -25 27 -25 105 0 102 15 127 75 127 25 0 43
-7 56 -21z"/>
<path d="M8525 1864 c-43 -23 -55 -42 -55 -90 0 -57 33 -89 108 -105 126 -25
152 -41 152 -88 0 -81 -162 -108 -218 -36 -21 26 -62 34 -62 12 0 -67 147
-113 252 -78 77 26 103 110 52 170 -21 25 -39 33 -106 48 -44 9 -91 25 -104
36 -33 25 -32 71 1 93 48 31 157 15 170 -26 4 -12 13 -16 30 -12 14 2 25 7 25
11 0 18 -36 55 -66 67 -44 19 -141 17 -179 -2z"/>
<path d="M9956 1815 c-5 -26 -12 -35 -26 -35 -11 0 -20 -7 -20 -15 0 -8 9 -15
20 -15 18 0 19 -8 19 -127 0 -144 5 -153 73 -153 31 0 38 4 38 19 0 14 -5 18
-19 14 -39 -10 -51 21 -51 138 l0 109 30 0 c20 0 30 5 30 15 0 10 -10 15 -30
15 -28 0 -30 3 -30 35 0 23 -5 35 -14 35 -8 0 -17 -15 -20 -35z"/>
<path d="M8914 1771 c-31 -14 -45 -28 -57 -60 -33 -81 -16 -177 38 -219 50
-39 164 -26 197 22 22 32 -18 39 -49 9 -49 -50 -138 -15 -150 60 l-6 37 112 0
111 0 0 38 c0 41 -28 95 -58 111 -40 21 -96 22 -138 2z m120 -43 c14 -13 28
-35 32 -50 l6 -28 -91 0 c-83 0 -91 2 -91 19 0 11 12 33 26 50 32 39 81 42
118 9z"/>
<path d="M9395 1783 c-59 -16 -95 -77 -95 -159 0 -101 49 -154 141 -154 47 0
63 5 88 26 17 14 31 30 31 34 0 19 -35 14 -57 -7 -49 -50 -138 -15 -150 60
l-6 37 112 0 111 0 0 30 c0 43 -24 96 -52 114 -26 17 -93 27 -123 19z m99 -55
c14 -13 28 -35 32 -50 l6 -28 -91 0 c-98 0 -105 5 -79 53 27 52 89 63 132 25z"/>
<path d="M10175 1775 c-22 -8 -41 -15 -43 -15 -2 0 -12 -19 -22 -42 -37 -81
-21 -182 35 -226 60 -47 205 -16 205 43 0 14 -38 6 -57 -12 -49 -50 -138 -15
-150 60 l-6 37 112 0 111 0 0 38 c0 40 -28 95 -57 110 -35 19 -88 22 -128 7z
m109 -47 c14 -13 28 -35 32 -50 l6 -28 -92 0 -92 0 6 28 c9 37 51 72 86 72 16
0 40 -10 54 -22z"/>
<path d="M9686 1759 c-54 -42 -70 -115 -44 -201 17 -59 58 -88 121 -88 55 0
85 17 106 57 15 30 14 33 -12 33 -16 0 -28 -9 -35 -25 -13 -27 -49 -40 -87
-31 -39 10 -58 58 -53 139 3 58 8 73 27 88 41 33 107 17 122 -30 3 -8 12 -9
29 -3 l25 9 -37 37 c-32 32 -42 36 -86 36 -35 0 -57 -6 -76 -21z"/>
<path d="M13690 1590 c-19 -19 -25 -42 -22 -82 1 -13 -6 -18 -23 -18 -16 0
-25 -6 -25 -15 0 -9 9 -15 25 -15 l25 0 0 -140 c0 -133 1 -140 20 -140 19 0
20 7 20 140 l0 140 35 0 c24 0 35 5 35 15 0 10 -11 15 -35 15 -29 0 -35 4 -35
21 0 32 19 59 40 59 13 0 20 7 20 20 0 16 -7 20 -30 20 -17 0 -39 -9 -50 -20z"/>
<path d="M13316 1417 c-39 -94 -76 -187 -83 -205 -14 -33 -14 -33 14 -30 23 2
30 12 48 58 l21 55 99 0 99 0 20 -57 c18 -51 24 -58 47 -58 l27 0 -81 205
c-81 203 -82 205 -112 205 -29 0 -31 -3 -99 -173z m174 -69 c0 -4 -34 -8 -75
-8 -45 0 -75 4 -75 10 0 6 11 36 24 68 13 31 29 75 36 97 l13 39 38 -99 c22
-54 39 -103 39 -107z"/>
<path d="M5226 1541 c-10 -10 -18 -35 -19 -55 -2 -30 -6 -36 -24 -36 -16 0
-23 -6 -23 -20 0 -15 7 -20 25 -20 l25 0 0 -135 c0 -128 1 -135 20 -135 19 0
20 7 20 135 l0 135 30 0 c23 0 30 4 30 20 0 16 -7 20 -30 20 -25 0 -30 4 -30
24 0 27 24 56 46 56 8 0 14 7 14 15 0 23 -63 20 -84 -4z"/>
<path d="M13836 1544 c-3 -9 -6 -24 -6 -35 0 -12 -7 -19 -20 -19 -11 0 -20 -7
-20 -15 0 -8 6 -15 14 -15 12 0 15 -25 18 -126 3 -140 10 -154 75 -154 26 0
33 4 33 19 0 14 -8 21 -27 23 l-28 3 -3 118 -3 117 31 0 c20 0 30 5 30 15 0
10 -10 15 -30 15 -28 0 -30 3 -30 35 0 37 -22 49 -34 19z"/>
<path d="M4480 1341 l0 -201 103 0 c133 1 180 19 198 79 17 56 0 94 -54 120
-23 11 -35 20 -26 21 8 0 25 10 37 23 32 34 30 96 -4 128 -23 22 -35 24 -140
27 l-114 4 0 -201z m208 143 c18 -12 22 -24 20 -52 -4 -47 -32 -62 -115 -62
l-63 0 0 65 0 65 68 0 c46 0 75 -5 90 -16z m11 -169 c33 -16 45 -52 31 -89
-13 -36 -40 -46 -124 -46 l-76 0 0 75 0 75 70 0 c43 0 82 -6 99 -15z"/>
<path d="M14040 1482 c-47 -23 -70 -72 -70 -148 0 -68 25 -118 70 -142 40 -21
134 -11 165 18 14 13 25 27 25 31 0 13 -40 17 -48 5 -11 -19 -47 -36 -77 -36
-37 0 -85 50 -85 89 l0 31 110 0 110 0 0 33 c0 73 -62 137 -135 137 -16 0 -46
-8 -65 -18z m124 -43 c17 -14 26 -30 26 -50 l0 -29 -86 0 -86 0 6 33 c12 64
86 88 140 46z"/>
<path d="M14402 1484 c-13 -9 -27 -26 -32 -38 -8 -18 -9 -17 -9 12 -1 27 -5
32 -26 32 l-25 0 0 -155 0 -155 24 0 c24 0 24 1 27 114 5 128 17 156 71 156
23 0 28 4 28 25 0 30 -24 33 -58 9z"/>
<path d="M4905 1428 c-76 -59 -74 -223 3 -275 55 -36 177 -15 196 33 9 24 -22
27 -50 5 -26 -21 -76 -27 -109 -15 -19 8 -45 55 -45 84 0 19 6 20 110 20 l110
0 0 36 c0 49 -27 102 -61 119 -43 23 -121 19 -154 -7z m124 -23 c30 -15 41
-33 41 -66 0 -17 -8 -19 -85 -19 -79 0 -85 1 -85 21 0 27 52 79 80 79 11 0 34
-7 49 -15z"/>
<path d="M5392 1425 c-60 -50 -65 -200 -9 -253 52 -49 142 -52 190 -8 63 59
61 206 -4 260 -25 21 -41 26 -89 26 -48 0 -64 -5 -88 -25z m143 -28 c45 -38
47 -165 4 -208 -28 -28 -89 -26 -118 4 -27 30 -38 110 -21 161 21 66 85 86
135 43z"/>
<path d="M5690 1295 l0 -155 25 0 25 0 0 109 c0 94 3 112 21 135 12 15 30 26
45 26 17 0 24 5 24 20 0 33 -44 26 -74 -12 l-26 -33 0 33 c0 25 -4 32 -20 32
-19 0 -20 -7 -20 -155z"/>
<path d="M5925 1428 c-76 -59 -74 -223 3 -275 55 -36 177 -15 196 33 9 24 -22
27 -50 5 -26 -21 -76 -27 -109 -15 -19 8 -45 55 -45 84 0 19 6 20 110 20 l110
0 0 36 c0 49 -27 102 -61 119 -43 23 -121 19 -154 -7z m124 -23 c30 -15 41
-33 41 -66 0 -17 -8 -19 -85 -19 -79 0 -85 1 -85 21 0 27 52 79 80 79 11 0 34
-7 49 -15z"/>
<path d="M9320 1098 l0 -82 -28 27 c-38 37 -112 38 -147 3 -48 -48 -58 -189
-16 -246 41 -57 121 -63 167 -13 l24 26 0 -27 c0 -19 5 -26 20 -26 19 0 20 7
20 210 0 203 -1 210 -20 210 -18 0 -20 -7 -20 -82z m-35 -83 c25 -24 30 -50
26 -130 -4 -71 -45 -106 -107 -91 -62 16 -75 189 -17 234 27 20 72 14 98 -13z"/>
<path d="M9796 1124 c-3 -9 -6 -24 -6 -35 0 -12 -7 -19 -20 -19 -11 0 -20 -7
-20 -15 0 -8 7 -15 15 -15 12 0 15 -20 15 -116 0 -63 5 -124 11 -135 13 -24
50 -40 78 -32 26 7 28 33 3 33 -36 0 -42 20 -42 137 l0 113 30 0 c20 0 30 5
30 15 0 10 -10 15 -30 15 -28 0 -30 3 -30 35 0 37 -22 49 -34 19z"/>
<path d="M9555 1073 c-52 -9 -67 -15 -85 -33 -28 -28 -26 -50 5 -50 15 0 25 6
25 15 0 19 31 35 69 35 37 0 71 -31 71 -63 0 -22 -6 -24 -80 -34 -90 -12 -116
-28 -125 -77 -9 -48 9 -85 52 -102 47 -20 102 -6 132 33 15 18 21 21 21 10 0
-25 29 -47 61 -47 33 0 40 25 9 33 -18 5 -20 14 -20 96 0 91 -14 150 -40 166
-19 12 -72 21 -95 18z m85 -177 c0 -56 -48 -106 -104 -106 -52 0 -75 61 -36
100 16 16 33 20 80 20 44 0 60 -4 60 -14z"/>
<path d="M9984 1051 c-41 -25 -57 -75 -52 -157 3 -44 10 -72 24 -91 26 -35 86
-56 137 -48 61 11 123 75 71 75 -8 0 -23 -9 -34 -20 -25 -25 -89 -27 -119 -2
-12 9 -24 34 -28 55 l-6 37 112 0 111 0 0 30 c0 48 -30 109 -61 125 -40 21
-117 19 -155 -4z m125 -26 c30 -15 41 -33 41 -66 0 -17 -8 -19 -85 -19 -92 0
-97 4 -74 54 20 43 70 56 118 31z"/>
</g>
</svg>
