<svg xmlns="http://www.w3.org/2000/svg" viewBox="0 0 222.64 50.34"><defs><style>.a{fill:#fff;}.b{fill:#0394d3;}.c{fill:#e5315d;}.d{fill:#935a8e;}</style></defs><title>Asset 2</title><path class="a" d="M127.93,48.54a13.38,13.38,0,0,1-5.73-5.07,14.2,14.2,0,0,1-2-7.59,18.5,18.5,0,0,1,2.52-9.6,18,18,0,0,1,7-6.72,20.79,20.79,0,0,1,10.14-2.46,17.75,17.75,0,0,1,8.91,2.13,13.42,13.42,0,0,1,5.61,6l-7.92,4a7.36,7.36,0,0,0-7.2-4.38,9.15,9.15,0,0,0-8.37,5.1,11.8,11.8,0,0,0-1.23,5.46,7,7,0,0,0,2,5.25,7.53,7.53,0,0,0,5.52,2,8.85,8.85,0,0,0,7.92-4.32L152,42.6a15.91,15.91,0,0,1-6.39,5.7,21.31,21.31,0,0,1-17.67.24Z"/><path class="a" d="M8.88,5.34h9.36L9.36,49.86H0Z"/><path class="a" d="M47.85,20Q51,22.8,51,28.08a18.2,18.2,0,0,1-.42,3.9L47,49.86H37.65l3.48-17.28a9.69,9.69,0,0,0,.24-2.22A5.07,5.07,0,0,0,40,26.52a5.78,5.78,0,0,0-4.14-1.32,8.75,8.75,0,0,0-6,2.07,10.8,10.8,0,0,0-3.21,6.21L23.43,49.86H14.07l6.42-32.28h8.88l-.72,3.48a15.14,15.14,0,0,1,10.62-4Q44.67,17.1,47.85,20Z"/><path class="a" d="M56.43,49.41A17.27,17.27,0,0,1,50.58,47l3.6-6.78a18.11,18.11,0,0,0,5.13,2.22,22.7,22.7,0,0,0,6.09.84,10.68,10.68,0,0,0,4.74-.81,2.52,2.52,0,0,0,1.56-2.31,1.83,1.83,0,0,0-1.38-1.74,28.32,28.32,0,0,0-4.44-1.14,41.58,41.58,0,0,1-5.73-1.44,9.53,9.53,0,0,1-3.9-2.55,6.8,6.8,0,0,1-1.65-4.83,9.5,9.5,0,0,1,4.47-8.34q4.47-3,11.73-3a29.52,29.52,0,0,1,6.54.72,19.78,19.78,0,0,1,5.4,2l-3.36,6.84a17.73,17.73,0,0,0-9.54-2.46,9.62,9.62,0,0,0-4.65.9,2.63,2.63,0,0,0-1.59,2.28A1.92,1.92,0,0,0,65,29.19a28.18,28.18,0,0,0,4.62,1.23,42.83,42.83,0,0,1,5.61,1.41A9.22,9.22,0,0,1,79,34.32a6.68,6.68,0,0,1,1.62,4.74,9.38,9.38,0,0,1-4.53,8.34q-4.53,2.94-11.73,2.94A32.93,32.93,0,0,1,56.43,49.41Z"/><path class="a" d="M90.61,48.54a13.41,13.41,0,0,1-5.7-5.07,14.2,14.2,0,0,1-2-7.59,18.5,18.5,0,0,1,2.52-9.6,18.13,18.13,0,0,1,7-6.72,20.32,20.32,0,0,1,10-2.46A19.23,19.23,0,0,1,111,18.9,13.45,13.45,0,0,1,116.65,24a14.2,14.2,0,0,1,2,7.59,18.67,18.67,0,0,1-2.49,9.6,17.86,17.86,0,0,1-7,6.72,20.49,20.49,0,0,1-10,2.46A19.28,19.28,0,0,1,90.61,48.54Zm14-7.29A9.13,9.13,0,0,0,108,37.5a12.18,12.18,0,0,0,1.2-5.52,7.05,7.05,0,0,0-1.92-5.22,7.3,7.3,0,0,0-5.4-1.92,9,9,0,0,0-8.28,5.1,12.18,12.18,0,0,0-1.2,5.52,7,7,0,0,0,2,5.22,7.41,7.41,0,0,0,5.43,1.92A9,9,0,0,0,104.62,41.25Z"/><path class="a" d="M206.17,17.58l-6.42,32.28h-8.88l.6-3.18a15,15,0,0,1-16.86,1.92,13,13,0,0,1-5.07-5,15.14,15.14,0,0,1-1.89-7.71A19.58,19.58,0,0,1,170,26.25a17.52,17.52,0,0,1,6.45-6.72,17.26,17.26,0,0,1,9-2.43q7.44,0,10.5,4.86l.84-4.38Zm-16.8,23.67a9.13,9.13,0,0,0,3.36-3.75,12.18,12.18,0,0,0,1.2-5.52,7,7,0,0,0-2-5.22,7.41,7.41,0,0,0-5.43-1.92,9,9,0,0,0-8.28,5.1,12.18,12.18,0,0,0-1.2,5.52,7,7,0,0,0,2,5.22,7.41,7.41,0,0,0,5.43,1.92A9.09,9.09,0,0,0,189.37,41.25Z"/><path class="a" d="M213.28,5.34h9.36l-8.88,44.52H204.4Z"/><polygon class="b" points="159.35 1.98 157.43 11.87 156.78 15.28 160.85 11.87 167.57 11.87 169.48 1.98 159.35 1.98"/><polygon class="c" points="163.84 0 161.92 9.88 168.65 9.88 171.4 13.29 172.08 9.76 172.08 9.76 173.97 0 163.84 0"/><polygon class="a" points="161.76 13.86 159.13 16.07 152.39 49.86 161.66 49.86 168.83 13.86 161.76 13.86"/><polygon class="d" points="163.46 1.98 161.92 9.88 167.95 9.88 169.48 1.98 163.46 1.98"/></svg>
